<svg xmlns="http://www.w3.org/2000/svg" xmlns:xlink="http://www.w3.org/1999/xlink" width="1920" zoomAndPan="magnify" viewBox="0 0 1440 809.999993" height="1080" preserveAspectRatio="xMidYMid meet" version="1.0"><defs><clipPath id="771f5a0297"><path d="M 599.214844 381.027344 L 749.214844 381.027344 L 749.214844 429 L 599.214844 429 Z M 599.214844 381.027344 " clip-rule="nonzero"/></clipPath><clipPath id="f772d4ab4f"><path d="M 486.871094 381.027344 L 636.871094 381.027344 L 636.871094 429 L 486.871094 429 Z M 486.871094 381.027344 " clip-rule="nonzero"/></clipPath><clipPath id="8b4fa495e9"><path d="M 443.367188 431.105469 L 593.367188 431.105469 L 593.367188 479 L 443.367188 479 Z M 443.367188 431.105469 " clip-rule="nonzero"/></clipPath><clipPath id="2758ed4c0a"><path d="M 399.988281 481.140625 L 549.988281 481.140625 L 549.988281 529 L 399.988281 529 Z M 399.988281 481.140625 " clip-rule="nonzero"/></clipPath><clipPath id="f77a03dbb0"><path d="M 356.011719 531.179688 L 506 531.179688 L 506 579 L 356.011719 579 Z M 356.011719 531.179688 " clip-rule="nonzero"/></clipPath><clipPath id="853a7ed109"><path d="M 467.957031 531.179688 L 617.957031 531.179688 L 617.957031 579 L 467.957031 579 Z M 467.957031 531.179688 " clip-rule="nonzero"/></clipPath><clipPath id="99aaba8504"><path d="M 579.902344 531.179688 L 729.902344 531.179688 L 729.902344 579 L 579.902344 579 Z M 579.902344 531.179688 " clip-rule="nonzero"/></clipPath><clipPath id="f03ae000b2"><path d="M 624.300781 481.140625 L 774.300781 481.140625 L 774.300781 529 L 624.300781 529 Z M 624.300781 481.140625 " clip-rule="nonzero"/></clipPath><clipPath id="7f7976b90b"><path d="M 710.640625 381.027344 L 860.640625 381.027344 L 860.640625 429 L 710.640625 429 Z M 710.640625 381.027344 " clip-rule="nonzero"/></clipPath><clipPath id="a359225f21"><path d="M 821.976562 381.027344 L 971.976562 381.027344 L 971.976562 429 L 821.976562 429 Z M 821.976562 381.027344 " clip-rule="nonzero"/></clipPath><clipPath id="8c39c8adce"><path d="M 934.0625 381.027344 L 1084 381.027344 L 1084 429 L 934.0625 429 Z M 934.0625 381.027344 " clip-rule="nonzero"/></clipPath><clipPath id="f4430b1352"><path d="M 755.058594 331.109375 L 905 331.109375 L 905 379 L 755.058594 379 Z M 755.058594 331.109375 " clip-rule="nonzero"/></clipPath><clipPath id="2046a931e5"><path d="M 798.644531 281.070312 L 948.644531 281.070312 L 948.644531 329 L 798.644531 329 Z M 798.644531 281.070312 " clip-rule="nonzero"/></clipPath></defs><g clip-path="url(#771f5a0297)"><path fill="#ffffff" d="M 706.917969 428.746094 L 599.214844 428.746094 L 641.433594 381.089844 L 749.132812 381.089844 Z M 706.917969 428.746094 " fill-opacity="1" fill-rule="nonzero"/></g><g clip-path="url(#f772d4ab4f)"><path fill="#ffffff" d="M 594.574219 428.746094 L 486.871094 428.746094 L 529.085938 381.089844 L 636.789062 381.089844 Z M 594.574219 428.746094 " fill-opacity="1" fill-rule="nonzero"/></g><g clip-path="url(#8b4fa495e9)"><path fill="#ffffff" d="M 551.066406 478.820312 L 443.367188 478.820312 L 485.582031 431.164062 L 593.285156 431.164062 Z M 551.066406 478.820312 " fill-opacity="1" fill-rule="nonzero"/></g><g clip-path="url(#2758ed4c0a)"><path fill="#ffffff" d="M 507.691406 528.859375 L 399.988281 528.859375 L 442.203125 481.203125 L 549.90625 481.203125 Z M 507.691406 528.859375 " fill-opacity="1" fill-rule="nonzero"/></g><g clip-path="url(#f77a03dbb0)"><path fill="#ffffff" d="M 463.714844 578.894531 L 356.011719 578.894531 L 398.230469 531.242188 L 505.929688 531.242188 Z M 463.714844 578.894531 " fill-opacity="1" fill-rule="nonzero"/></g><g clip-path="url(#853a7ed109)"><path fill="#ffffff" d="M 575.660156 578.894531 L 467.957031 578.894531 L 510.171875 531.242188 L 617.875 531.242188 Z M 575.660156 578.894531 " fill-opacity="1" fill-rule="nonzero"/></g><g clip-path="url(#99aaba8504)"><path fill="#ffffff" d="M 687.605469 578.894531 L 579.902344 578.894531 L 622.117188 531.242188 L 729.820312 531.242188 Z M 687.605469 578.894531 " fill-opacity="1" fill-rule="nonzero"/></g><g clip-path="url(#f03ae000b2)"><path fill="#ffffff" d="M 732.003906 528.859375 L 624.300781 528.859375 L 666.515625 481.203125 L 774.21875 481.203125 Z M 732.003906 528.859375 " fill-opacity="1" fill-rule="nonzero"/></g><g clip-path="url(#7f7976b90b)"><path fill="#ff3131" d="M 818.34375 428.746094 L 710.640625 428.746094 L 752.855469 381.089844 L 860.558594 381.089844 Z M 818.34375 428.746094 " fill-opacity="1" fill-rule="nonzero"/></g><g clip-path="url(#a359225f21)"><path fill="#ff3131" d="M 929.679688 428.746094 L 821.976562 428.746094 L 864.191406 381.089844 L 971.894531 381.089844 Z M 929.679688 428.746094 " fill-opacity="1" fill-rule="nonzero"/></g><g clip-path="url(#8c39c8adce)"><path fill="#ff3131" d="M 1041.765625 428.746094 L 934.0625 428.746094 L 976.28125 381.089844 L 1083.980469 381.089844 Z M 1041.765625 428.746094 " fill-opacity="1" fill-rule="nonzero"/></g><g clip-path="url(#f4430b1352)"><path fill="#ff3131" d="M 862.761719 378.824219 L 755.058594 378.824219 L 797.277344 331.167969 L 904.976562 331.167969 Z M 862.761719 378.824219 " fill-opacity="1" fill-rule="nonzero"/></g><g clip-path="url(#2046a931e5)"><path fill="#ff3131" d="M 906.347656 328.785156 L 798.644531 328.785156 L 840.859375 281.132812 L 948.5625 281.132812 Z M 906.347656 328.785156 " fill-opacity="1" fill-rule="nonzero"/></g></svg>