<svg xmlns="http://www.w3.org/2000/svg" xmlns:xlink="http://www.w3.org/1999/xlink" width="1920" zoomAndPan="magnify" viewBox="0 0 1440 809.999993" height="1080" preserveAspectRatio="xMidYMid meet" version="1.0"><defs><clipPath id="08e3ab667d"><path d="M 599.214844 381.027344 L 749.214844 381.027344 L 749.214844 429 L 599.214844 429 Z M 599.214844 381.027344 " clip-rule="nonzero"/></clipPath><clipPath id="d70175d87c"><path d="M 710.640625 381.027344 L 860.640625 381.027344 L 860.640625 429 L 710.640625 429 Z M 710.640625 381.027344 " clip-rule="nonzero"/></clipPath><clipPath id="dacc6ff270"><path d="M 821.976562 381.027344 L 971.976562 381.027344 L 971.976562 429 L 821.976562 429 Z M 821.976562 381.027344 " clip-rule="nonzero"/></clipPath><clipPath id="3194b26d01"><path d="M 934.0625 381.027344 L 1084 381.027344 L 1084 429 L 934.0625 429 Z M 934.0625 381.027344 " clip-rule="nonzero"/></clipPath></defs><g clip-path="url(#08e3ab667d)"><path fill="#ffffff" d="M 706.917969 428.746094 L 599.214844 428.746094 L 641.433594 381.089844 L 749.132812 381.089844 Z M 706.917969 428.746094 " fill-opacity="1" fill-rule="nonzero"/></g><g clip-path="url(#d70175d87c)"><path fill="#ff3131" d="M 818.34375 428.746094 L 710.640625 428.746094 L 752.855469 381.089844 L 860.558594 381.089844 Z M 818.34375 428.746094 " fill-opacity="1" fill-rule="nonzero"/></g><g clip-path="url(#dacc6ff270)"><path fill="#ff3131" d="M 929.679688 428.746094 L 821.976562 428.746094 L 864.191406 381.089844 L 971.894531 381.089844 Z M 929.679688 428.746094 " fill-opacity="1" fill-rule="nonzero"/></g><g clip-path="url(#3194b26d01)"><path fill="#ff3131" d="M 1041.765625 428.746094 L 934.0625 428.746094 L 976.28125 381.089844 L 1083.980469 381.089844 Z M 1041.765625 428.746094 " fill-opacity="1" fill-rule="nonzero"/></g></svg>