<svg xmlns="http://www.w3.org/2000/svg" xmlns:xlink="http://www.w3.org/1999/xlink" width="1920" zoomAndPan="magnify" viewBox="0 0 1440 809.999993" height="1080" preserveAspectRatio="xMidYMid meet" version="1.0"><defs><clipPath id="fca361ca5e"><path d="M 599.214844 381.027344 L 749.214844 381.027344 L 749.214844 429 L 599.214844 429 Z M 599.214844 381.027344 " clip-rule="nonzero"/></clipPath><clipPath id="2f36476154"><path d="M 486.871094 381.027344 L 636.871094 381.027344 L 636.871094 429 L 486.871094 429 Z M 486.871094 381.027344 " clip-rule="nonzero"/></clipPath><clipPath id="a57b019f97"><path d="M 443.367188 431.105469 L 593.367188 431.105469 L 593.367188 479 L 443.367188 479 Z M 443.367188 431.105469 " clip-rule="nonzero"/></clipPath><clipPath id="1c9359394c"><path d="M 399.988281 481.140625 L 549.988281 481.140625 L 549.988281 529 L 399.988281 529 Z M 399.988281 481.140625 " clip-rule="nonzero"/></clipPath><clipPath id="3215f362c1"><path d="M 356.011719 531.179688 L 506 531.179688 L 506 579 L 356.011719 579 Z M 356.011719 531.179688 " clip-rule="nonzero"/></clipPath><clipPath id="cc34c81c98"><path d="M 467.957031 531.179688 L 617.957031 531.179688 L 617.957031 579 L 467.957031 579 Z M 467.957031 531.179688 " clip-rule="nonzero"/></clipPath><clipPath id="5c354d607f"><path d="M 710.640625 381.027344 L 860.640625 381.027344 L 860.640625 429 L 710.640625 429 Z M 710.640625 381.027344 " clip-rule="nonzero"/></clipPath><clipPath id="83eba3c608"><path d="M 821.976562 381.027344 L 971.976562 381.027344 L 971.976562 429 L 821.976562 429 Z M 821.976562 381.027344 " clip-rule="nonzero"/></clipPath><clipPath id="3e2fcc8034"><path d="M 934.0625 381.027344 L 1084 381.027344 L 1084 429 L 934.0625 429 Z M 934.0625 381.027344 " clip-rule="nonzero"/></clipPath></defs><g clip-path="url(#fca361ca5e)"><path fill="#ffffff" d="M 706.917969 428.746094 L 599.214844 428.746094 L 641.433594 381.089844 L 749.132812 381.089844 Z M 706.917969 428.746094 " fill-opacity="1" fill-rule="nonzero"/></g><g clip-path="url(#2f36476154)"><path fill="#ffffff" d="M 594.574219 428.746094 L 486.871094 428.746094 L 529.085938 381.089844 L 636.789062 381.089844 Z M 594.574219 428.746094 " fill-opacity="1" fill-rule="nonzero"/></g><g clip-path="url(#a57b019f97)"><path fill="#ffffff" d="M 551.066406 478.820312 L 443.367188 478.820312 L 485.582031 431.164062 L 593.285156 431.164062 Z M 551.066406 478.820312 " fill-opacity="1" fill-rule="nonzero"/></g><g clip-path="url(#1c9359394c)"><path fill="#ffffff" d="M 507.691406 528.859375 L 399.988281 528.859375 L 442.203125 481.203125 L 549.90625 481.203125 Z M 507.691406 528.859375 " fill-opacity="1" fill-rule="nonzero"/></g><g clip-path="url(#3215f362c1)"><path fill="#ffffff" d="M 463.714844 578.894531 L 356.011719 578.894531 L 398.230469 531.242188 L 505.929688 531.242188 Z M 463.714844 578.894531 " fill-opacity="1" fill-rule="nonzero"/></g><g clip-path="url(#cc34c81c98)"><path fill="#ffffff" d="M 575.660156 578.894531 L 467.957031 578.894531 L 510.171875 531.242188 L 617.875 531.242188 Z M 575.660156 578.894531 " fill-opacity="1" fill-rule="nonzero"/></g><g clip-path="url(#5c354d607f)"><path fill="#ff3131" d="M 818.34375 428.746094 L 710.640625 428.746094 L 752.855469 381.089844 L 860.558594 381.089844 Z M 818.34375 428.746094 " fill-opacity="1" fill-rule="nonzero"/></g><g clip-path="url(#83eba3c608)"><path fill="#ff3131" d="M 929.679688 428.746094 L 821.976562 428.746094 L 864.191406 381.089844 L 971.894531 381.089844 Z M 929.679688 428.746094 " fill-opacity="1" fill-rule="nonzero"/></g><g clip-path="url(#3e2fcc8034)"><path fill="#ff3131" d="M 1041.765625 428.746094 L 934.0625 428.746094 L 976.28125 381.089844 L 1083.980469 381.089844 Z M 1041.765625 428.746094 " fill-opacity="1" fill-rule="nonzero"/></g></svg>