<svg xmlns="http://www.w3.org/2000/svg" xmlns:xlink="http://www.w3.org/1999/xlink" width="1920" zoomAndPan="magnify" viewBox="0 0 1440 809.999993" height="1080" preserveAspectRatio="xMidYMid meet" version="1.0"><defs><clipPath id="e42c095fd7"><path d="M 599.214844 381.027344 L 749.214844 381.027344 L 749.214844 429 L 599.214844 429 Z M 599.214844 381.027344 " clip-rule="nonzero"/></clipPath><clipPath id="f52815ab4c"><path d="M 486.871094 381.027344 L 636.871094 381.027344 L 636.871094 429 L 486.871094 429 Z M 486.871094 381.027344 " clip-rule="nonzero"/></clipPath><clipPath id="aec2210b16"><path d="M 443.367188 431.105469 L 593.367188 431.105469 L 593.367188 479 L 443.367188 479 Z M 443.367188 431.105469 " clip-rule="nonzero"/></clipPath><clipPath id="6b41f71fca"><path d="M 710.640625 381.027344 L 860.640625 381.027344 L 860.640625 429 L 710.640625 429 Z M 710.640625 381.027344 " clip-rule="nonzero"/></clipPath><clipPath id="d4db4ab414"><path d="M 821.976562 381.027344 L 971.976562 381.027344 L 971.976562 429 L 821.976562 429 Z M 821.976562 381.027344 " clip-rule="nonzero"/></clipPath><clipPath id="645b08116e"><path d="M 934.0625 381.027344 L 1084 381.027344 L 1084 429 L 934.0625 429 Z M 934.0625 381.027344 " clip-rule="nonzero"/></clipPath></defs><g clip-path="url(#e42c095fd7)"><path fill="#ffffff" d="M 706.917969 428.746094 L 599.214844 428.746094 L 641.433594 381.089844 L 749.132812 381.089844 Z M 706.917969 428.746094 " fill-opacity="1" fill-rule="nonzero"/></g><g clip-path="url(#f52815ab4c)"><path fill="#ffffff" d="M 594.574219 428.746094 L 486.871094 428.746094 L 529.085938 381.089844 L 636.789062 381.089844 Z M 594.574219 428.746094 " fill-opacity="1" fill-rule="nonzero"/></g><g clip-path="url(#aec2210b16)"><path fill="#ffffff" d="M 551.066406 478.820312 L 443.367188 478.820312 L 485.582031 431.164062 L 593.285156 431.164062 Z M 551.066406 478.820312 " fill-opacity="1" fill-rule="nonzero"/></g><g clip-path="url(#6b41f71fca)"><path fill="#ff3131" d="M 818.34375 428.746094 L 710.640625 428.746094 L 752.855469 381.089844 L 860.558594 381.089844 Z M 818.34375 428.746094 " fill-opacity="1" fill-rule="nonzero"/></g><g clip-path="url(#d4db4ab414)"><path fill="#ff3131" d="M 929.679688 428.746094 L 821.976562 428.746094 L 864.191406 381.089844 L 971.894531 381.089844 Z M 929.679688 428.746094 " fill-opacity="1" fill-rule="nonzero"/></g><g clip-path="url(#645b08116e)"><path fill="#ff3131" d="M 1041.765625 428.746094 L 934.0625 428.746094 L 976.28125 381.089844 L 1083.980469 381.089844 Z M 1041.765625 428.746094 " fill-opacity="1" fill-rule="nonzero"/></g></svg>