<svg xmlns="http://www.w3.org/2000/svg" xmlns:xlink="http://www.w3.org/1999/xlink" width="1920" zoomAndPan="magnify" viewBox="0 0 1440 809.999993" height="1080" preserveAspectRatio="xMidYMid meet" version="1.0"><defs><clipPath id="9871d53f32"><path d="M 599.214844 381.027344 L 749.214844 381.027344 L 749.214844 429 L 599.214844 429 Z M 599.214844 381.027344 " clip-rule="nonzero"/></clipPath><clipPath id="2274585e5a"><path d="M 486.871094 381.027344 L 636.871094 381.027344 L 636.871094 429 L 486.871094 429 Z M 486.871094 381.027344 " clip-rule="nonzero"/></clipPath><clipPath id="10bbd81690"><path d="M 443.367188 431.105469 L 593.367188 431.105469 L 593.367188 479 L 443.367188 479 Z M 443.367188 431.105469 " clip-rule="nonzero"/></clipPath><clipPath id="3b663fe0c8"><path d="M 399.988281 481.140625 L 549.988281 481.140625 L 549.988281 529 L 399.988281 529 Z M 399.988281 481.140625 " clip-rule="nonzero"/></clipPath><clipPath id="6966c253b3"><path d="M 710.640625 381.027344 L 860.640625 381.027344 L 860.640625 429 L 710.640625 429 Z M 710.640625 381.027344 " clip-rule="nonzero"/></clipPath><clipPath id="17bf9301eb"><path d="M 821.976562 381.027344 L 971.976562 381.027344 L 971.976562 429 L 821.976562 429 Z M 821.976562 381.027344 " clip-rule="nonzero"/></clipPath><clipPath id="472be9d704"><path d="M 934.0625 381.027344 L 1084 381.027344 L 1084 429 L 934.0625 429 Z M 934.0625 381.027344 " clip-rule="nonzero"/></clipPath></defs><g clip-path="url(#9871d53f32)"><path fill="#ffffff" d="M 706.917969 428.746094 L 599.214844 428.746094 L 641.433594 381.089844 L 749.132812 381.089844 Z M 706.917969 428.746094 " fill-opacity="1" fill-rule="nonzero"/></g><g clip-path="url(#2274585e5a)"><path fill="#ffffff" d="M 594.574219 428.746094 L 486.871094 428.746094 L 529.085938 381.089844 L 636.789062 381.089844 Z M 594.574219 428.746094 " fill-opacity="1" fill-rule="nonzero"/></g><g clip-path="url(#10bbd81690)"><path fill="#ffffff" d="M 551.066406 478.820312 L 443.367188 478.820312 L 485.582031 431.164062 L 593.285156 431.164062 Z M 551.066406 478.820312 " fill-opacity="1" fill-rule="nonzero"/></g><g clip-path="url(#3b663fe0c8)"><path fill="#ffffff" d="M 507.691406 528.859375 L 399.988281 528.859375 L 442.203125 481.203125 L 549.90625 481.203125 Z M 507.691406 528.859375 " fill-opacity="1" fill-rule="nonzero"/></g><g clip-path="url(#6966c253b3)"><path fill="#ff3131" d="M 818.34375 428.746094 L 710.640625 428.746094 L 752.855469 381.089844 L 860.558594 381.089844 Z M 818.34375 428.746094 " fill-opacity="1" fill-rule="nonzero"/></g><g clip-path="url(#17bf9301eb)"><path fill="#ff3131" d="M 929.679688 428.746094 L 821.976562 428.746094 L 864.191406 381.089844 L 971.894531 381.089844 Z M 929.679688 428.746094 " fill-opacity="1" fill-rule="nonzero"/></g><g clip-path="url(#472be9d704)"><path fill="#ff3131" d="M 1041.765625 428.746094 L 934.0625 428.746094 L 976.28125 381.089844 L 1083.980469 381.089844 Z M 1041.765625 428.746094 " fill-opacity="1" fill-rule="nonzero"/></g></svg>