<svg xmlns="http://www.w3.org/2000/svg" xmlns:xlink="http://www.w3.org/1999/xlink" width="500" zoomAndPan="magnify" viewBox="0 0 375 374.999991" height="500" preserveAspectRatio="xMidYMid meet" version="1.0"><defs><g/><clipPath id="e186727269"><path d="M 177 192 L 235 192 L 235 239.957031 L 177 239.957031 Z M 177 192 " clip-rule="nonzero"/></clipPath><clipPath id="ebdedd166b"><path d="M 253 52.457031 L 309.582031 52.457031 L 309.582031 100 L 253 100 Z M 253 52.457031 " clip-rule="nonzero"/></clipPath><clipPath id="e451c79a7e"><path d="M 159 52.457031 L 216 52.457031 L 216 100 L 159 100 Z M 159 52.457031 " clip-rule="nonzero"/></clipPath><clipPath id="0100d79bdd"><path d="M 65.082031 52.457031 L 122 52.457031 L 122 100 L 65.082031 100 Z M 65.082031 52.457031 " clip-rule="nonzero"/></clipPath></defs><path fill="#ff3131" d="M 243.730469 146.207031 L 196.789062 146.207031 L 206.078125 99.449219 L 253.183594 99.449219 Z M 243.730469 146.207031 " fill-opacity="1" fill-rule="nonzero"/><path fill="#ff3131" d="M 149.679688 146.207031 L 102.738281 146.207031 L 112.027344 99.449219 L 159.132812 99.449219 Z M 149.679688 146.207031 " fill-opacity="1" fill-rule="nonzero"/><g clip-path="url(#e186727269)"><path fill="#ff3131" d="M 224.824219 239.71875 L 177.878906 239.71875 L 187.332031 192.960938 L 234.277344 192.960938 Z M 224.824219 239.71875 " fill-opacity="1" fill-rule="nonzero"/></g><path fill="#ff3131" d="M 281.382812 192.960938 L 234.277344 192.960938 L 243.730469 146.207031 L 290.675781 146.207031 Z M 281.382812 192.960938 " fill-opacity="1" fill-rule="nonzero"/><g clip-path="url(#ebdedd166b)"><path fill="#ff3131" d="M 300.128906 99.449219 L 253.183594 99.449219 L 262.640625 52.695312 L 309.582031 52.695312 Z M 300.128906 99.449219 " fill-opacity="1" fill-rule="nonzero"/></g><g clip-path="url(#e451c79a7e)"><path fill="#ff3131" d="M 206.078125 99.449219 L 159.132812 99.449219 L 168.589844 52.695312 L 215.53125 52.695312 Z M 206.078125 99.449219 " fill-opacity="1" fill-rule="nonzero"/></g><g clip-path="url(#0100d79bdd)"><path fill="#ff3131" d="M 112.027344 99.449219 L 65.082031 99.449219 L 74.539062 52.695312 L 121.480469 52.695312 Z M 112.027344 99.449219 " fill-opacity="1" fill-rule="nonzero"/></g><g fill="#ffffff" fill-opacity="1"><g transform="translate(33.286406, 309.823889)"><g><path d="M 20.25 -16.078125 L 20.25 -19.96875 L 31.03125 -19.96875 L 31.03125 -0.796875 C 26.289062 0.109375 22.0625 0.5625 18.34375 0.5625 C 12.65625 0.5625 8.710938 -1.070312 6.515625 -4.34375 C 4.316406 -7.613281 3.21875 -12.660156 3.21875 -19.484375 C 3.21875 -26.316406 4.316406 -31.378906 6.515625 -34.671875 C 8.710938 -37.960938 12.613281 -39.609375 18.21875 -39.609375 C 21.71875 -39.609375 25.347656 -39.234375 29.109375 -38.484375 L 31.03125 -38.140625 L 30.859375 -34.53125 C 26.191406 -35.320312 22.148438 -35.71875 18.734375 -35.71875 C 14.410156 -35.71875 11.492188 -34.460938 9.984375 -31.953125 C 8.484375 -29.453125 7.734375 -25.296875 7.734375 -19.484375 C 7.734375 -13.679688 8.484375 -9.523438 9.984375 -7.015625 C 11.492188 -4.515625 14.390625 -3.265625 18.671875 -3.265625 C 21.304688 -3.265625 24 -3.53125 26.75 -4.0625 L 26.75 -16.078125 Z M 20.25 -16.078125 "/></g></g></g><g fill="#ffffff" fill-opacity="1"><g transform="translate(76.779616, 309.823889)"><g><path d="M 9.140625 -14.953125 L 9.140625 0 L 4.796875 0 L 4.796875 -39.046875 L 19.234375 -39.046875 C 23.378906 -39.046875 26.492188 -38.082031 28.578125 -36.15625 C 30.660156 -34.238281 31.703125 -31.25 31.703125 -27.1875 C 31.703125 -21.175781 29.316406 -17.398438 24.546875 -15.859375 L 32.046875 0 L 27.25 0 L 20.203125 -14.953125 Z M 19.296875 -18.78125 C 24.597656 -18.78125 27.25 -21.515625 27.25 -26.984375 C 27.25 -32.460938 24.578125 -35.203125 19.234375 -35.203125 L 9.140625 -35.203125 L 9.140625 -18.78125 Z M 19.296875 -18.78125 "/></g></g></g><g fill="#ffffff" fill-opacity="1"><g transform="translate(120.272826, 309.823889)"><g><path d="M 4.796875 0 L 4.796875 -39.046875 L 9.140625 -39.046875 L 9.140625 0 Z M 4.796875 0 "/></g></g></g><g fill="#ffffff" fill-opacity="1"><g transform="translate(142.895322, 309.823889)"><g><path d="M 18.734375 0 L 4.796875 0 L 4.796875 -39.046875 L 18.734375 -39.046875 C 25.085938 -39.046875 29.300781 -36.523438 31.375 -31.484375 C 32.570312 -28.585938 33.171875 -24.789062 33.171875 -20.09375 C 33.171875 -10.269531 30.726562 -4.078125 25.84375 -1.515625 C 23.882812 -0.503906 21.515625 0 18.734375 0 Z M 28.71875 -20.09375 C 28.71875 -27.570312 27.046875 -32.234375 23.703125 -34.078125 C 22.347656 -34.828125 20.691406 -35.203125 18.734375 -35.203125 L 9.140625 -35.203125 L 9.140625 -3.84375 L 18.734375 -3.84375 C 25.390625 -3.84375 28.71875 -9.257812 28.71875 -20.09375 Z M 28.71875 -20.09375 "/></g></g></g><g fill="#ffffff" fill-opacity="1"><g transform="translate(188.009375, 309.823889)"><g><path d="M 26.015625 0 L 4.171875 0 L 4.171875 -38.359375 L 11.96875 -38.359375 L 11.96875 -6.890625 L 26.015625 -6.890625 Z M 26.015625 0 "/></g></g></g><g fill="#ffffff" fill-opacity="1"><g transform="translate(223.379937, 309.823889)"><g><path d="M 12.15625 -9.046875 C 13.269531 -7.078125 15.347656 -6.09375 18.390625 -6.09375 C 21.441406 -6.09375 23.519531 -7.078125 24.625 -9.046875 C 25.738281 -11.023438 26.296875 -14.335938 26.296875 -18.984375 C 26.296875 -23.628906 25.726562 -27.003906 24.59375 -29.109375 C 23.46875 -31.210938 21.398438 -32.265625 18.390625 -32.265625 C 15.378906 -32.265625 13.3125 -31.210938 12.1875 -29.109375 C 11.0625 -27.003906 10.5 -23.628906 10.5 -18.984375 C 10.5 -14.335938 11.050781 -11.023438 12.15625 -9.046875 Z M 30.71875 -4.09375 C 28.332031 -0.914062 24.222656 0.671875 18.390625 0.671875 C 12.554688 0.671875 8.445312 -0.914062 6.0625 -4.09375 C 3.675781 -7.269531 2.484375 -12.242188 2.484375 -19.015625 C 2.484375 -25.785156 3.675781 -30.816406 6.0625 -34.109375 C 8.445312 -37.398438 12.554688 -39.046875 18.390625 -39.046875 C 24.222656 -39.046875 28.332031 -37.398438 30.71875 -34.109375 C 33.101562 -30.816406 34.296875 -25.785156 34.296875 -19.015625 C 34.296875 -12.242188 33.101562 -7.269531 30.71875 -4.09375 Z M 30.71875 -4.09375 "/></g></g></g><g fill="#ffffff" fill-opacity="1"><g transform="translate(268.903813, 309.823889)"><g><path d="M 28.5 -0.625 C 24.507812 0.238281 20.914062 0.671875 17.71875 0.671875 C 14.519531 0.671875 11.960938 0.28125 10.046875 -0.5 C 8.128906 -1.289062 6.625 -2.550781 5.53125 -4.28125 C 4.4375 -6.019531 3.679688 -8.050781 3.265625 -10.375 C 2.859375 -12.707031 2.65625 -15.644531 2.65625 -19.1875 C 2.65625 -26.59375 3.695312 -31.753906 5.78125 -34.671875 C 7.875 -37.585938 11.722656 -39.046875 17.328125 -39.046875 C 20.554688 -39.046875 24.296875 -38.535156 28.546875 -37.515625 L 28.328125 -31.3125 C 24.597656 -31.875 21.5 -32.15625 19.03125 -32.15625 C 16.570312 -32.15625 14.816406 -31.828125 13.765625 -31.171875 C 12.710938 -30.515625 11.929688 -29.265625 11.421875 -27.421875 C 10.910156 -25.578125 10.65625 -22.4375 10.65625 -18 C 10.65625 -13.5625 11.171875 -10.484375 12.203125 -8.765625 C 13.242188 -7.054688 15.316406 -6.203125 18.421875 -6.203125 C 21.523438 -6.203125 24.828125 -6.46875 28.328125 -7 Z M 28.5 -0.625 "/></g></g></g><g fill="#ffffff" fill-opacity="1"><g transform="translate(308.279284, 309.823889)"><g><path d="M 11.96875 0 L 4.171875 0 L 4.171875 -38.359375 L 11.96875 -38.359375 L 11.96875 -21.5 L 17.15625 -22.0625 L 23.46875 -38.359375 L 32.328125 -38.359375 L 23.984375 -19.125 L 32.5625 0 L 23.578125 0 L 17.15625 -15.296875 L 11.96875 -14.71875 Z M 11.96875 0 "/></g></g></g></svg>