<svg xmlns="http://www.w3.org/2000/svg" xmlns:xlink="http://www.w3.org/1999/xlink" width="500" zoomAndPan="magnify" viewBox="0 0 375 374.999991" height="500" preserveAspectRatio="xMidYMid meet" version="1.0"><defs><clipPath id="3f82ad24be"><path d="M 173 257 L 258 257 L 258 327.410156 L 173 327.410156 Z M 173 257 " clip-rule="nonzero"/></clipPath><clipPath id="f4459215ce"><path d="M 285 48 L 369.746094 48 L 369.746094 118 L 285 118 Z M 285 48 " clip-rule="nonzero"/></clipPath><clipPath id="45459cc8cb"><path d="M 5.246094 48 L 90 48 L 90 118 L 5.246094 118 Z M 5.246094 48 " clip-rule="nonzero"/></clipPath></defs><path fill="#ff5757" d="M 271.574219 187.535156 L 201.589844 187.535156 L 215.441406 117.773438 L 285.667969 117.773438 Z M 271.574219 187.535156 " fill-opacity="1" fill-rule="nonzero"/><path fill="#ff5757" d="M 131.363281 187.535156 L 61.378906 187.535156 L 75.230469 117.773438 L 145.457031 117.773438 Z M 131.363281 187.535156 " fill-opacity="1" fill-rule="nonzero"/><g clip-path="url(#3f82ad24be)"><path fill="#ff5757" d="M 243.382812 327.058594 L 173.402344 327.058594 L 187.496094 257.296875 L 257.480469 257.296875 Z M 243.382812 327.058594 " fill-opacity="1" fill-rule="nonzero"/></g><path fill="#ff5757" d="M 327.707031 257.296875 L 257.480469 257.296875 L 271.574219 187.535156 L 341.554688 187.535156 Z M 327.707031 257.296875 " fill-opacity="1" fill-rule="nonzero"/><g clip-path="url(#f4459215ce)"><path fill="#ff5757" d="M 355.652344 117.773438 L 285.667969 117.773438 L 299.761719 48.011719 L 369.746094 48.011719 Z M 355.652344 117.773438 " fill-opacity="1" fill-rule="nonzero"/></g><path fill="#ff5757" d="M 215.441406 117.773438 L 145.457031 117.773438 L 159.550781 48.011719 L 229.535156 48.011719 Z M 215.441406 117.773438 " fill-opacity="1" fill-rule="nonzero"/><g clip-path="url(#45459cc8cb)"><path fill="#ff5757" d="M 75.230469 117.773438 L 5.246094 117.773438 L 19.339844 48.011719 L 89.324219 48.011719 Z M 75.230469 117.773438 " fill-opacity="1" fill-rule="nonzero"/></g></svg>