<svg xmlns="http://www.w3.org/2000/svg" xmlns:xlink="http://www.w3.org/1999/xlink" width="1920" zoomAndPan="magnify" viewBox="0 0 1440 809.999993" height="1080" preserveAspectRatio="xMidYMid meet" version="1.0"><defs><clipPath id="5d339037bc"><path d="M 599.214844 381.027344 L 749.214844 381.027344 L 749.214844 429 L 599.214844 429 Z M 599.214844 381.027344 " clip-rule="nonzero"/></clipPath><clipPath id="2d54d210cd"><path d="M 486.871094 381.027344 L 636.871094 381.027344 L 636.871094 429 L 486.871094 429 Z M 486.871094 381.027344 " clip-rule="nonzero"/></clipPath><clipPath id="0db18b7f4b"><path d="M 443.367188 431.105469 L 593.367188 431.105469 L 593.367188 479.105469 L 443.367188 479.105469 Z M 443.367188 431.105469 " clip-rule="nonzero"/></clipPath><clipPath id="235f220c7d"><path d="M 399.988281 481.140625 L 549.988281 481.140625 L 549.988281 529.140625 L 399.988281 529.140625 Z M 399.988281 481.140625 " clip-rule="nonzero"/></clipPath><clipPath id="ff075b62db"><path d="M 356.011719 531.179688 L 506.011719 531.179688 L 506.011719 579.179688 L 356.011719 579.179688 Z M 356.011719 531.179688 " clip-rule="nonzero"/></clipPath><clipPath id="de447e683f"><path d="M 467.957031 531.179688 L 617.957031 531.179688 L 617.957031 579.179688 L 467.957031 579.179688 Z M 467.957031 531.179688 " clip-rule="nonzero"/></clipPath><clipPath id="b95b78afca"><path d="M 579.902344 531.179688 L 729.902344 531.179688 L 729.902344 579.179688 L 579.902344 579.179688 Z M 579.902344 531.179688 " clip-rule="nonzero"/></clipPath><clipPath id="84574bdf62"><path d="M 710.640625 381.027344 L 860.640625 381.027344 L 860.640625 429 L 710.640625 429 Z M 710.640625 381.027344 " clip-rule="nonzero"/></clipPath><clipPath id="701f84cadf"><path d="M 821.976562 381.027344 L 971.976562 381.027344 L 971.976562 429 L 821.976562 429 Z M 821.976562 381.027344 " clip-rule="nonzero"/></clipPath><clipPath id="e3514b7ee1"><path d="M 934.0625 381.027344 L 1084 381.027344 L 1084 429 L 934.0625 429 Z M 934.0625 381.027344 " clip-rule="nonzero"/></clipPath></defs><g clip-path="url(#5d339037bc)"><path fill="#000000" d="M 706.976562 428.964844 L 599.214844 428.964844 L 641.457031 381.089844 L 749.214844 381.089844 Z M 706.976562 428.964844 " fill-opacity="1" fill-rule="nonzero"/></g><g clip-path="url(#2d54d210cd)"><path fill="#000000" d="M 594.632812 428.964844 L 486.871094 428.964844 L 529.109375 381.089844 L 636.871094 381.089844 Z M 594.632812 428.964844 " fill-opacity="1" fill-rule="nonzero"/></g><g clip-path="url(#0db18b7f4b)"><path fill="#000000" d="M 551.128906 479.042969 L 443.367188 479.042969 L 485.605469 431.164062 L 593.367188 431.164062 Z M 551.128906 479.042969 " fill-opacity="1" fill-rule="nonzero"/></g><g clip-path="url(#235f220c7d)"><path fill="#000000" d="M 507.75 529.082031 L 399.988281 529.082031 L 442.226562 481.203125 L 549.988281 481.203125 Z M 507.75 529.082031 " fill-opacity="1" fill-rule="nonzero"/></g><g clip-path="url(#ff075b62db)"><path fill="#000000" d="M 463.773438 579.117188 L 356.011719 579.117188 L 398.25 531.242188 L 506.011719 531.242188 Z M 463.773438 579.117188 " fill-opacity="1" fill-rule="nonzero"/></g><g clip-path="url(#de447e683f)"><path fill="#000000" d="M 575.71875 579.117188 L 467.957031 579.117188 L 510.195312 531.242188 L 617.957031 531.242188 Z M 575.71875 579.117188 " fill-opacity="1" fill-rule="nonzero"/></g><g clip-path="url(#b95b78afca)"><path fill="#000000" d="M 687.664062 579.117188 L 579.902344 579.117188 L 622.140625 531.242188 L 729.902344 531.242188 Z M 687.664062 579.117188 " fill-opacity="1" fill-rule="nonzero"/></g><g clip-path="url(#84574bdf62)"><path fill="#ff3131" d="M 818.34375 428.746094 L 710.640625 428.746094 L 752.855469 381.089844 L 860.558594 381.089844 Z M 818.34375 428.746094 " fill-opacity="1" fill-rule="nonzero"/></g><g clip-path="url(#701f84cadf)"><path fill="#ff3131" d="M 929.679688 428.746094 L 821.976562 428.746094 L 864.191406 381.089844 L 971.894531 381.089844 Z M 929.679688 428.746094 " fill-opacity="1" fill-rule="nonzero"/></g><g clip-path="url(#e3514b7ee1)"><path fill="#ff3131" d="M 1041.765625 428.746094 L 934.0625 428.746094 L 976.28125 381.089844 L 1083.980469 381.089844 Z M 1041.765625 428.746094 " fill-opacity="1" fill-rule="nonzero"/></g></svg>