<svg xmlns="http://www.w3.org/2000/svg" xmlns:xlink="http://www.w3.org/1999/xlink" width="1920" zoomAndPan="magnify" viewBox="0 0 1440 809.999993" height="1080" preserveAspectRatio="xMidYMid meet" version="1.0"><defs><clipPath id="4610f0eefb"><path d="M 599.214844 381.027344 L 749.214844 381.027344 L 749.214844 429 L 599.214844 429 Z M 599.214844 381.027344 " clip-rule="nonzero"/></clipPath><clipPath id="7668e382c7"><path d="M 486.871094 381.027344 L 636.871094 381.027344 L 636.871094 429 L 486.871094 429 Z M 486.871094 381.027344 " clip-rule="nonzero"/></clipPath><clipPath id="37cd20226c"><path d="M 443.367188 431.105469 L 593.367188 431.105469 L 593.367188 479.105469 L 443.367188 479.105469 Z M 443.367188 431.105469 " clip-rule="nonzero"/></clipPath><clipPath id="5e661a248a"><path d="M 399.988281 481.140625 L 549.988281 481.140625 L 549.988281 529.140625 L 399.988281 529.140625 Z M 399.988281 481.140625 " clip-rule="nonzero"/></clipPath><clipPath id="497a7b447b"><path d="M 356.011719 531.179688 L 506.011719 531.179688 L 506.011719 579.179688 L 356.011719 579.179688 Z M 356.011719 531.179688 " clip-rule="nonzero"/></clipPath><clipPath id="c9f3ec0632"><path d="M 467.957031 531.179688 L 617.957031 531.179688 L 617.957031 579.179688 L 467.957031 579.179688 Z M 467.957031 531.179688 " clip-rule="nonzero"/></clipPath><clipPath id="b19f38d60b"><path d="M 579.902344 531.179688 L 729.902344 531.179688 L 729.902344 579.179688 L 579.902344 579.179688 Z M 579.902344 531.179688 " clip-rule="nonzero"/></clipPath><clipPath id="db715443d3"><path d="M 624.300781 481.140625 L 774.300781 481.140625 L 774.300781 529.140625 L 624.300781 529.140625 Z M 624.300781 481.140625 " clip-rule="nonzero"/></clipPath><clipPath id="9e2a754c44"><path d="M 710.640625 381.027344 L 860.640625 381.027344 L 860.640625 429 L 710.640625 429 Z M 710.640625 381.027344 " clip-rule="nonzero"/></clipPath><clipPath id="05213c4495"><path d="M 821.976562 381.027344 L 971.976562 381.027344 L 971.976562 429 L 821.976562 429 Z M 821.976562 381.027344 " clip-rule="nonzero"/></clipPath><clipPath id="3c8ccdfeaa"><path d="M 934.0625 381.027344 L 1084 381.027344 L 1084 429 L 934.0625 429 Z M 934.0625 381.027344 " clip-rule="nonzero"/></clipPath><clipPath id="9f366d899a"><path d="M 755.058594 331.109375 L 905 331.109375 L 905 379 L 755.058594 379 Z M 755.058594 331.109375 " clip-rule="nonzero"/></clipPath></defs><g clip-path="url(#4610f0eefb)"><path fill="#000000" d="M 706.976562 428.96875 L 599.214844 428.96875 L 641.457031 381.089844 L 749.214844 381.089844 Z M 706.976562 428.96875 " fill-opacity="1" fill-rule="nonzero"/></g><g clip-path="url(#7668e382c7)"><path fill="#000000" d="M 594.632812 428.96875 L 486.871094 428.96875 L 529.109375 381.089844 L 636.871094 381.089844 Z M 594.632812 428.96875 " fill-opacity="1" fill-rule="nonzero"/></g><g clip-path="url(#37cd20226c)"><path fill="#000000" d="M 551.128906 479.042969 L 443.367188 479.042969 L 485.605469 431.164062 L 593.367188 431.164062 Z M 551.128906 479.042969 " fill-opacity="1" fill-rule="nonzero"/></g><g clip-path="url(#5e661a248a)"><path fill="#000000" d="M 507.75 529.082031 L 399.988281 529.082031 L 442.226562 481.203125 L 549.988281 481.203125 Z M 507.75 529.082031 " fill-opacity="1" fill-rule="nonzero"/></g><g clip-path="url(#497a7b447b)"><path fill="#000000" d="M 463.773438 579.117188 L 356.011719 579.117188 L 398.25 531.242188 L 506.011719 531.242188 Z M 463.773438 579.117188 " fill-opacity="1" fill-rule="nonzero"/></g><g clip-path="url(#c9f3ec0632)"><path fill="#000000" d="M 575.71875 579.117188 L 467.957031 579.117188 L 510.195312 531.242188 L 617.957031 531.242188 Z M 575.71875 579.117188 " fill-opacity="1" fill-rule="nonzero"/></g><g clip-path="url(#b19f38d60b)"><path fill="#000000" d="M 687.664062 579.117188 L 579.902344 579.117188 L 622.140625 531.242188 L 729.902344 531.242188 Z M 687.664062 579.117188 " fill-opacity="1" fill-rule="nonzero"/></g><g clip-path="url(#db715443d3)"><path fill="#000000" d="M 732.0625 529.082031 L 624.300781 529.082031 L 666.539062 481.203125 L 774.300781 481.203125 Z M 732.0625 529.082031 " fill-opacity="1" fill-rule="nonzero"/></g><g clip-path="url(#9e2a754c44)"><path fill="#ff3131" d="M 818.34375 428.746094 L 710.640625 428.746094 L 752.855469 381.089844 L 860.558594 381.089844 Z M 818.34375 428.746094 " fill-opacity="1" fill-rule="nonzero"/></g><g clip-path="url(#05213c4495)"><path fill="#ff3131" d="M 929.679688 428.746094 L 821.976562 428.746094 L 864.191406 381.089844 L 971.894531 381.089844 Z M 929.679688 428.746094 " fill-opacity="1" fill-rule="nonzero"/></g><g clip-path="url(#3c8ccdfeaa)"><path fill="#ff3131" d="M 1041.765625 428.746094 L 934.0625 428.746094 L 976.28125 381.089844 L 1083.980469 381.089844 Z M 1041.765625 428.746094 " fill-opacity="1" fill-rule="nonzero"/></g><g clip-path="url(#9f366d899a)"><path fill="#ff3131" d="M 862.761719 378.824219 L 755.058594 378.824219 L 797.277344 331.167969 L 904.976562 331.167969 Z M 862.761719 378.824219 " fill-opacity="1" fill-rule="nonzero"/></g></svg>